<svg width="33" height="33" viewBox="0 0 33 33" fill="none" xmlns="http://www.w3.org/2000/svg">
<g id="Isolation_Mode" clip-path="url(#clip0_1095_398)">
<path id="Vector" d="M16.9807 0.981445C8.14555 0.981445 0.981445 8.14555 0.981445 16.9807C0.981445 22.1043 3.38975 26.6653 7.13703 29.5942V23.6101C5.97263 21.7926 5.29612 19.6306 5.29612 17.3127C5.29612 10.9576 10.3699 5.78713 16.6892 5.63126C16.7874 5.62814 16.884 5.62814 16.9822 5.62814C17.0804 5.62814 17.1786 5.62814 17.2753 5.63126C23.593 5.78713 28.6683 10.9576 28.6683 17.3127C28.6683 19.6321 27.9934 21.7926 26.8274 23.6101V29.5942C30.5731 26.6653 32.983 22.1043 32.983 16.9807C32.9814 8.14555 25.8173 0.981445 16.9807 0.981445Z" fill="#0F172A"/>
<path id="Vector_2" d="M9.0166 21.1641V30.8612C10.2714 31.5829 11.6353 32.1378 13.0741 32.4994V21.1656H9.0166V21.1641Z" fill="#64748B"/>
<path id="Vector_3" d="M14.9541 17.3975V32.8511C15.6181 32.9353 16.2962 32.9805 16.9836 32.9805C17.671 32.9805 18.3475 32.9353 19.0131 32.8511V17.3975H14.9557H14.9541Z" fill="#0019FF"/>
<path id="Vector_4" d="M20.8916 12.4736V32.4992C22.3319 32.1375 23.6943 31.5826 24.9491 30.8609V12.4736H20.8916Z" fill="#0F172A"/>
</g>
<defs>
<clipPath id="clip0_1095_398">
<rect width="32" height="32" fill="white" transform="translate(0.981445 0.981445)"/>
</clipPath>
</defs>
</svg>
