<svg width="199" height="30" viewBox="0 0 199 30" fill="none" xmlns="http://www.w3.org/2000/svg">
<g clip-path="url(#clip0_1017_450)">
<path d="M14.9805 0.0185547C6.70797 0.0185547 0 6.72652 0 14.9991C0 19.7966 2.25496 24.0671 5.76366 26.8096V21.2064C4.67339 19.5046 4.03996 17.4803 4.03996 15.31C4.03996 9.3595 8.79071 4.51826 14.7076 4.37231C14.7996 4.36939 14.8901 4.36939 14.982 4.36939C15.074 4.36939 15.1659 4.36939 15.2564 4.37231C21.1718 4.51826 25.924 9.3595 25.924 15.31C25.924 17.4817 25.2921 19.5046 24.2003 21.2064V26.8096C27.7076 24.0671 29.964 19.7966 29.964 14.9991C29.9625 6.72652 23.2546 0.0185547 14.9805 0.0185547Z" fill="#0F172A"/>
<path d="M7.52344 18.916V27.9957C8.69835 28.6715 9.97544 29.1911 11.3226 29.5297V18.9175H7.52344V18.916Z" fill="#64748B"/>
<path d="M13.083 15.3896V29.8594C13.7048 29.9382 14.3397 29.9805 14.9833 29.9805C15.627 29.9805 16.2604 29.9382 16.8836 29.8594V15.3896H13.0845H13.083Z" fill="#0019FF"/>
<path d="M18.6426 10.7793V29.5298C19.9912 29.1912 21.2668 28.6716 22.4417 27.9958V10.7793H18.6426Z" fill="#0F172A"/>
</g>
<path d="M187.571 21.2913V8.70703H198.358V10.8643H189.908V12.9318H196.29V15.0891H189.908V19.134H198.358V21.2913H187.571Z" fill="#0F172A"/>
<path d="M179.925 21.651C175.431 21.651 173.004 18.4151 173.004 14.9993C173.004 11.5836 175.431 8.34766 179.925 8.34766C184.24 8.34766 185.858 11.1342 186.307 13.0218L183.97 13.2915C183.611 12.1229 182.622 10.505 179.925 10.505C177.229 10.505 175.341 12.4825 175.341 14.9993C175.341 17.5162 177.139 19.4937 179.925 19.4937C182.172 19.4937 183.521 18.2353 184.06 17.6061L186.038 18.8645C185.498 19.4937 183.88 21.651 179.925 21.651Z" fill="#0F172A"/>
<path d="M159.885 21.2913V8.70703H161.772L169.053 17.2464V8.70703H171.39V21.2913H169.503L162.222 12.752V21.2913H159.885Z" fill="#0F172A"/>
<path d="M147.297 21.2913V8.70703H158.083V10.8643H149.634V12.9318H156.016V15.0891H149.634V19.134H158.083V21.2913H147.297Z" fill="#0F172A"/>
<path d="M135.71 21.2913V8.70703H138.047V19.134H145.867V21.2913H135.71Z" fill="#0F172A"/>
<path d="M124.123 21.2913V8.70703H126.46V19.134H134.28V21.2913H124.123Z" fill="#0F172A"/>
<path d="M111.535 21.2913V8.70703H122.322V10.8643H113.872V12.9318H120.254V15.0891H113.872V19.134H122.322V21.2913H111.535Z" fill="#0F172A"/>
<path d="M103.89 21.651C99.3957 21.651 96.9688 18.4151 96.9688 14.9993C96.9688 11.5836 99.3957 8.34766 103.89 8.34766C108.205 8.34766 109.823 11.1342 110.272 13.0218L107.935 13.2915C107.575 12.1229 106.587 10.505 103.89 10.505C101.193 10.505 99.3058 12.4825 99.3058 14.9993C99.3058 17.5162 101.104 19.4937 103.89 19.4937C106.137 19.4937 107.486 18.2353 108.025 17.6061L110.002 18.8645C109.463 19.4937 107.845 21.651 103.89 21.651Z" fill="#0F172A"/>
<path d="M90.4883 21.651C86.5333 21.651 84.9153 19.4937 84.376 18.8645L86.3535 17.6061C86.8928 18.2353 88.2411 19.4937 90.4883 19.4937C92.1063 19.4937 93.5445 19.0443 93.5445 17.8757C93.5445 15.3589 84.7355 16.9769 84.7355 12.3027C84.7355 10.3252 86.5333 8.34766 89.949 8.34766C93.0052 8.34766 94.8928 9.96563 95.6119 11.7634L93.2749 12.2128C92.8254 11.3139 91.6569 10.505 89.8591 10.505C87.9715 10.505 87.0726 11.4038 87.0726 12.3027C87.0726 14.7297 95.8816 13.0218 95.8816 17.8757C95.8816 20.5724 93.5445 21.651 90.4883 21.651Z" fill="#0F172A"/>
<path d="M71.4365 21.2913V8.70703H73.3242L80.6051 17.2464V8.70703H82.9421V21.2913H81.0545L73.7736 12.752V21.2913H71.4365Z" fill="#0F172A"/>
<path d="M62.896 21.651C58.4016 21.651 55.9746 18.4151 55.9746 14.9993C55.9746 11.5836 58.4016 8.34766 62.896 8.34766C67.3903 8.34766 69.8173 11.5836 69.8173 14.9993C69.8173 18.4151 67.3903 21.651 62.896 21.651ZM62.896 19.4937C65.5926 19.4937 67.4802 17.5162 67.4802 14.9993C67.4802 12.4825 65.5926 10.505 62.896 10.505C60.1993 10.505 58.3117 12.4825 58.3117 14.9993C58.3117 17.5162 60.1993 19.4937 62.896 19.4937Z" fill="#0F172A"/>
<path d="M48.8686 21.651C44.3742 21.651 41.9473 18.4151 41.9473 14.9993C41.9473 11.5836 44.3742 8.34766 48.8686 8.34766C53.1832 8.34766 54.8012 11.1342 55.2506 13.0218L52.9136 13.2915C52.554 12.1229 51.5652 10.505 48.8686 10.505C46.172 10.505 44.2843 12.4825 44.2843 14.9993C44.2843 17.5162 46.0821 19.4937 48.8686 19.4937C51.1158 19.4937 52.4641 18.2353 53.0034 17.6061L54.981 18.8645C54.4416 19.4937 52.8237 21.651 48.8686 21.651Z" fill="#0F172A"/>
<defs>
<clipPath id="clip0_1017_450">
<rect width="29.9625" height="29.9625" fill="white" transform="translate(0 0.0185547)"/>
</clipPath>
</defs>
</svg>
